<svg width="2240" height="700" viewBox="0 0 2240 700" fill="none" xmlns="http://www.w3.org/2000/svg">
<rect width="2240" height="700" fill="white"/>
<path d="M542.56 281H583.96C605.44 281 621.88 286.82 633.28 298.46C644.8 309.98 650.56 325.16 650.56 344C650.56 362.84 644.8 378.08 633.28 389.72C621.88 401.24 605.44 407 583.96 407H542.56V281ZM622.12 379.82C630.88 371.3 635.26 359.36 635.26 344C635.26 328.64 630.88 316.7 622.12 308.18C613.48 299.66 600.76 295.4 583.96 295.4H557.68V392.6H583.96C600.76 392.6 613.48 388.34 622.12 379.82ZM671.131 367.94C668.371 360.26 666.991 352.28 666.991 344C666.991 335.72 668.371 327.74 671.131 320.06C674.011 312.38 678.091 305.48 683.371 299.36C688.651 293.12 695.551 288.14 704.071 284.42C712.591 280.7 722.191 278.84 732.871 278.84C743.551 278.84 753.151 280.7 761.671 284.42C770.191 288.14 777.091 293.12 782.371 299.36C787.651 305.48 791.671 312.38 794.431 320.06C797.311 327.74 798.751 335.72 798.751 344C798.751 352.28 797.311 360.26 794.431 367.94C791.671 375.62 787.651 382.58 782.371 388.82C777.091 394.94 770.191 399.86 761.671 403.58C753.151 407.3 743.551 409.16 732.871 409.16C722.191 409.16 712.591 407.3 704.071 403.58C695.551 399.86 688.651 394.94 683.371 388.82C678.091 382.58 674.011 375.62 671.131 367.94ZM780.211 362.9C782.371 356.9 783.451 350.6 783.451 344C783.451 337.4 782.371 331.1 780.211 325.1C778.171 319.1 775.111 313.7 771.031 308.9C767.071 304.1 761.791 300.32 755.191 297.56C748.591 294.68 741.151 293.24 732.871 293.24C724.591 293.24 717.151 294.68 710.551 297.56C703.951 300.32 698.611 304.1 694.531 308.9C690.571 313.7 687.511 319.1 685.351 325.1C683.311 331.1 682.291 337.4 682.291 344C682.291 350.6 683.311 356.9 685.351 362.9C687.511 368.9 690.571 374.3 694.531 379.1C698.611 383.9 703.951 387.74 710.551 390.62C717.151 393.38 724.591 394.76 732.871 394.76C741.151 394.76 748.591 393.38 755.191 390.62C761.791 387.74 767.071 383.9 771.031 379.1C775.111 374.3 778.171 368.9 780.211 362.9ZM814.998 344.9C814.998 330.98 818.298 318.92 824.898 308.72C831.498 298.4 839.718 290.84 849.558 286.04C859.398 281.24 869.958 278.84 881.238 278.84C894.198 278.84 906.018 281.66 916.698 287.3V302.42C907.578 296.3 896.598 293.24 883.758 293.24C869.358 293.24 856.878 297.68 846.318 306.56C835.758 315.32 830.418 328.1 830.298 344.9C830.298 355.58 832.998 364.82 838.398 372.62C843.918 380.42 850.638 386.06 858.558 389.54C866.598 393.02 875.178 394.76 884.298 394.76C897.858 394.76 908.958 391.7 917.598 385.58V400.7C906.678 406.34 894.498 409.16 881.058 409.16C873.018 409.16 865.098 407.78 857.298 405.02C849.498 402.14 842.418 398.12 836.058 392.96C829.698 387.68 824.598 380.9 820.758 372.62C816.918 364.22 814.998 354.98 814.998 344.9ZM1029.8 281H1044.92V360.92C1044.92 369.56 1043.48 377.12 1040.6 383.6C1037.84 389.96 1033.94 395 1028.9 398.72C1023.98 402.32 1018.46 404.96 1012.34 406.64C1006.34 408.32 999.676 409.16 992.356 409.16C976.876 409.16 964.216 405.32 954.376 397.64C944.536 389.96 939.616 377.72 939.616 360.92V281H954.736V360.2C954.736 383.24 967.276 394.76 992.356 394.76C1017.32 394.76 1029.8 383.24 1029.8 360.2V281ZM1193.58 281H1206.54V407H1191.42V309.62L1146.24 377.3H1136.88L1091.7 309.62V407H1076.58V281H1089.54L1141.56 358.76L1193.58 281ZM1239.71 281H1324.67V295.4H1254.83V336.26H1319.27V350.66H1254.83V392.6H1325.75V407H1239.71V281ZM1366.45 407H1351.33V281H1365.37L1441.15 381.62V370.82V281H1456.27V407H1442.23L1366.45 306.2V317V407ZM1475.28 281H1578.96V295.4H1534.68V407H1519.56V295.4H1475.28V281ZM1584.62 407H1568.24L1623.14 281H1639.88L1694.6 407H1678.4L1665.44 376.58H1597.58L1584.62 407ZM1629.44 301.34L1603.52 362.54H1659.5L1633.4 301.34C1633.16 300.74 1632.5 299.12 1631.42 296.48C1630.34 299.24 1629.68 300.86 1629.44 301.34ZM1684.11 281H1787.79V295.4H1743.51V407H1728.39V295.4H1684.11V281ZM1806.78 281H1821.9V407H1806.78V281ZM1850.62 367.94C1847.86 360.26 1846.48 352.28 1846.48 344C1846.48 335.72 1847.86 327.74 1850.62 320.06C1853.5 312.38 1857.58 305.48 1862.86 299.36C1868.14 293.12 1875.04 288.14 1883.56 284.42C1892.08 280.7 1901.68 278.84 1912.36 278.84C1923.04 278.84 1932.64 280.7 1941.16 284.42C1949.68 288.14 1956.58 293.12 1961.86 299.36C1967.14 305.48 1971.16 312.38 1973.92 320.06C1976.8 327.74 1978.24 335.72 1978.24 344C1978.24 352.28 1976.8 360.26 1973.92 367.94C1971.16 375.62 1967.14 382.58 1961.86 388.82C1956.58 394.94 1949.68 399.86 1941.16 403.58C1932.64 407.3 1923.04 409.16 1912.36 409.16C1901.68 409.16 1892.08 407.3 1883.56 403.58C1875.04 399.86 1868.14 394.94 1862.86 388.82C1857.58 382.58 1853.5 375.62 1850.62 367.94ZM1959.7 362.9C1961.86 356.9 1962.94 350.6 1962.94 344C1962.94 337.4 1961.86 331.1 1959.7 325.1C1957.66 319.1 1954.6 313.7 1950.52 308.9C1946.56 304.1 1941.28 300.32 1934.68 297.56C1928.08 294.68 1920.64 293.24 1912.36 293.24C1904.08 293.24 1896.64 294.68 1890.04 297.56C1883.44 300.32 1878.1 304.1 1874.02 308.9C1870.06 313.7 1867 319.1 1864.84 325.1C1862.8 331.1 1861.78 337.4 1861.78 344C1861.78 350.6 1862.8 356.9 1864.84 362.9C1867 368.9 1870.06 374.3 1874.02 379.1C1878.1 383.9 1883.44 387.74 1890.04 390.62C1896.64 393.38 1904.08 394.76 1912.36 394.76C1920.64 394.76 1928.08 393.38 1934.68 390.62C1941.28 387.74 1946.56 383.9 1950.52 379.1C1954.6 374.3 1957.66 368.9 1959.7 362.9ZM2018.07 407H2002.95V281H2016.99L2092.77 381.62V370.82V281H2107.89V407H2093.85L2018.07 306.2V317V407Z" fill="#2781F9"/>
<path d="M434.041 271.98L333.914 217.16C331.904 216.06 329.65 215.484 327.36 215.484C325.069 215.484 322.815 216.06 320.806 217.16L220.678 271.98C218.53 273.155 216.738 274.886 215.489 276.992C214.239 279.098 213.58 281.501 213.578 283.949V321.896V392.77C213.58 395.219 214.239 397.622 215.489 399.728C216.738 401.833 218.53 403.565 220.678 404.74L277.969 436.106L320.806 459.56C322.814 460.664 325.068 461.244 327.36 461.244C329.651 461.244 331.906 460.664 333.914 459.56L434.041 404.74C436.189 403.565 437.982 401.833 439.231 399.728C440.48 397.622 441.14 395.219 441.141 392.77V283.949C441.14 281.501 440.48 279.098 439.231 276.992C437.982 274.886 436.189 273.155 434.041 271.98ZM325.175 225.147C325.843 224.774 326.595 224.579 327.36 224.579C328.124 224.579 328.877 224.774 329.544 225.147L428.25 279.193L384.819 302.962C384.613 302.791 384.392 302.639 384.159 302.507L284.032 247.687L325.175 225.147ZM327.36 334.377L226.47 279.193L274.52 252.876L375.41 308.105L327.36 334.377ZM225.047 396.73C224.332 396.339 223.736 395.763 223.319 395.062C222.903 394.362 222.683 393.562 222.681 392.747V321.896V287.488L322.808 342.285V450.275L282.401 428.143L225.047 396.73ZM429.672 396.73L331.911 450.207V342.285L377.424 317.378V365.667C377.424 366.874 377.903 368.032 378.757 368.886C379.61 369.739 380.768 370.219 381.975 370.219C383.182 370.219 384.34 369.739 385.193 368.886C386.047 368.032 386.526 366.874 386.526 365.667V312.395L432.039 287.488V392.77C432.037 393.585 431.816 394.384 431.4 395.085C430.984 395.785 430.387 396.361 429.672 396.752V396.73Z" fill="#2781F9"/>
<rect x="191.851" y="316.83" width="129.177" height="150.706" fill="white"/>
<path d="M215.489 276.992C216.738 274.886 218.53 273.155 220.678 271.979L264.378 248.054C266.039 247.145 268.089 247.359 269.526 248.592C271.94 250.663 271.539 254.508 268.749 256.036L226.47 279.193L323.271 332.141C325.515 333.368 326.311 336.2 325.035 338.417C323.798 340.566 321.069 341.333 318.893 340.142L222.681 287.488V317.345C222.681 319.858 220.643 321.896 218.129 321.896C215.616 321.896 213.578 319.858 213.578 317.345V283.949C213.58 281.501 214.239 279.098 215.489 276.992Z" fill="#2781F9"/>
<path d="M327.36 461.244C325.068 461.244 322.814 460.664 320.806 459.56L281.993 438.31C279.775 437.095 278.97 434.307 280.2 432.097C281.418 429.909 284.174 429.114 286.37 430.317L322.808 450.275L322.907 429.919C322.918 427.564 324.743 425.616 327.092 425.45C329.697 425.267 331.911 427.33 331.911 429.941V450.207L376.133 426.017C378.586 424.675 381.658 425.829 382.621 428.453C383.401 430.578 382.509 432.954 380.524 434.041L333.914 459.56C331.906 460.664 329.651 461.244 327.36 461.244Z" fill="#2781F9"/>
<path d="M200.696 272.069L180.987 272.069C180.987 242.99 218.446 230.079 250.74 234.512C231.743 213.615 210.655 211.218 190.584 213.615C164.005 216.791 145.725 248.095 145.725 272.069L126.016 272.069L163.356 316.039L200.696 272.069Z" stroke="#2781F9" stroke-width="8.23185" stroke-linejoin="round"/>
<g clip-path="url(#clip0_21_1871)">
<path d="M212.335 337.093C214.122 337.093 215.721 338.205 216.323 339.871L220.615 351.768C222.153 352.15 223.472 352.533 224.59 352.935C225.812 353.372 227.386 354.035 229.332 354.941L239.325 349.652C240.141 349.22 241.075 349.064 241.987 349.207C242.899 349.351 243.74 349.786 244.383 350.448L253.173 359.536C254.34 360.746 254.669 362.515 254.012 364.059L249.325 375.044C250.103 376.472 250.723 377.694 251.198 378.715C251.708 379.828 252.34 381.36 253.094 383.335L264.018 388.016C265.659 388.715 266.674 390.356 266.565 392.113L265.763 404.727C265.708 405.546 265.414 406.332 264.916 406.985C264.419 407.639 263.741 408.133 262.966 408.405L252.62 412.082C252.322 413.511 252.012 414.733 251.684 415.766C251.154 417.362 250.55 418.932 249.872 420.471L255.07 431.96C255.437 432.768 255.535 433.671 255.352 434.539C255.168 435.406 254.711 436.192 254.049 436.781L244.164 445.608C243.513 446.186 242.701 446.552 241.836 446.657C240.971 446.761 240.095 446.599 239.325 446.191L229.137 440.793C227.543 441.637 225.899 442.382 224.213 443.024L219.763 444.69L215.812 455.632C215.519 456.433 214.991 457.127 214.297 457.623C213.603 458.119 212.775 458.393 211.922 458.41L200.372 458.671C199.496 458.694 198.635 458.445 197.907 457.959C197.178 457.472 196.619 456.772 196.305 455.954L191.649 443.632C190.06 443.089 188.487 442.501 186.931 441.869C185.659 441.318 184.406 440.724 183.175 440.088L171.625 445.024C170.864 445.349 170.025 445.445 169.21 445.302C168.395 445.158 167.639 444.781 167.035 444.215L158.488 436.197C157.852 435.603 157.418 434.824 157.249 433.969C157.08 433.115 157.184 432.23 157.546 431.438L162.512 420.617C161.852 419.336 161.239 418.03 160.677 416.702C160.019 415.078 159.411 413.434 158.853 411.772L147.972 408.459C147.087 408.192 146.316 407.64 145.777 406.889C145.238 406.139 144.963 405.231 144.993 404.307L145.418 392.63C145.449 391.868 145.687 391.129 146.107 390.492C146.527 389.856 147.113 389.347 147.801 389.019L159.218 383.536C159.746 381.597 160.208 380.089 160.616 378.989C161.189 377.519 161.826 376.075 162.525 374.661L157.576 364.205C157.201 363.411 157.087 362.518 157.251 361.655C157.414 360.792 157.848 360.004 158.488 359.403L167.023 351.342C167.621 350.778 168.37 350.398 169.179 350.249C169.988 350.101 170.822 350.189 171.582 350.503L183.12 355.269C184.396 354.418 185.551 353.731 186.597 353.178C187.843 352.515 189.509 351.822 191.606 351.075L195.618 339.883C195.915 339.064 196.457 338.357 197.171 337.857C197.884 337.358 198.735 337.091 199.606 337.093H212.335ZM209.356 345.464H202.591L198.913 355.761C198.697 356.362 198.347 356.905 197.89 357.351C197.433 357.796 196.88 358.132 196.275 358.333C193.624 359.214 191.709 359.974 190.591 360.564C189.405 361.19 187.892 362.144 186.092 363.421C185.504 363.834 184.82 364.092 184.105 364.171C183.389 364.249 182.666 364.146 182.001 363.871L170.877 359.281L166.543 363.378L171.059 372.922C171.33 373.49 171.467 374.112 171.461 374.741C171.454 375.37 171.305 375.989 171.023 376.551C169.807 378.989 168.986 380.788 168.573 381.895C167.939 383.736 167.391 385.607 166.932 387.499C166.779 388.092 166.499 388.644 166.11 389.116C165.721 389.589 165.234 389.97 164.683 390.235L153.801 395.457L153.582 401.414L163.43 404.405C164.737 404.8 165.771 405.803 166.202 407.092C167.175 410.01 167.953 412.161 168.512 413.511C169.253 415.224 170.073 416.901 170.968 418.538C171.271 419.101 171.439 419.727 171.459 420.367C171.479 421.006 171.351 421.641 171.084 422.222L166.518 432.179L170.84 436.24L181.673 431.608C182.257 431.359 182.888 431.242 183.522 431.267C184.156 431.293 184.777 431.459 185.339 431.754C187.557 432.921 189.211 433.729 190.256 434.173C191.32 434.617 193.357 435.359 196.311 436.368C196.898 436.568 197.433 436.895 197.878 437.326C198.324 437.757 198.669 438.281 198.889 438.86L203.192 450.234L208.821 450.112L212.451 440.058C212.658 439.484 212.988 438.962 213.417 438.529C213.847 438.095 214.365 437.76 214.937 437.547L221.241 435.188C222.833 434.599 224.766 433.669 227.022 432.392C227.646 432.041 228.348 431.853 229.064 431.845C229.78 431.836 230.487 432.008 231.119 432.343L240.705 437.419L246.097 432.611L241.38 422.198C241.138 421.663 241.012 421.083 241.011 420.496C241.01 419.909 241.134 419.329 241.374 418.794C242.48 416.319 243.228 414.453 243.605 413.262C243.976 412.095 244.359 410.411 244.73 408.247C244.857 407.512 245.178 406.824 245.66 406.254C246.142 405.685 246.767 405.254 247.471 405.007L257.489 401.45L257.927 394.52L248.079 390.302C247.555 390.079 247.081 389.751 246.687 389.339C246.293 388.928 245.987 388.44 245.787 387.907C245.085 385.969 244.319 384.055 243.489 382.168C242.704 380.525 241.853 378.915 240.936 377.341C240.619 376.786 240.434 376.164 240.398 375.525C240.361 374.885 240.472 374.246 240.724 373.658L245.131 363.324L240.486 358.521L231.441 363.311C230.851 363.625 230.195 363.795 229.526 363.809C228.858 363.822 228.196 363.679 227.593 363.39C225.673 362.436 223.71 361.572 221.709 360.801C220.003 360.228 218.263 359.761 216.499 359.403C215.799 359.254 215.149 358.93 214.609 358.461C214.068 357.992 213.656 357.394 213.411 356.722L209.35 345.458L209.356 345.464ZM205.928 371.384C220.73 371.384 232.736 383.256 232.736 397.894C232.736 412.532 220.73 424.398 205.928 424.398C191.12 424.398 179.12 412.532 179.12 397.894C179.12 383.256 191.12 371.39 205.928 371.39V371.384ZM205.928 379.761C195.794 379.761 187.582 387.876 187.582 397.894C187.582 407.912 195.794 416.034 205.928 416.034C216.055 416.034 224.268 407.912 224.268 397.894C224.268 387.876 216.061 379.761 205.928 379.761Z" fill="#2781F9"/>
</g>
<defs>
<clipPath id="clip0_21_1871">
<rect width="121.578" height="121.578" fill="white" transform="translate(144.992 337.093)"/>
</clipPath>
</defs>
</svg>
