<svg width="1029" height="226" viewBox="0 0 1029 226" fill="none" xmlns="http://www.w3.org/2000/svg">
<path d="M280.17 145.429H270.524V64.9686H301.987C307.27 64.9686 312.054 65.6965 316.341 67.1525C320.628 68.5318 324.303 71.1372 327.365 74.9686C330.504 78.7234 332.073 83.5127 332.073 89.3365C332.073 96.233 330.082 101.597 326.102 105.428C322.121 109.26 316.954 111.75 310.6 112.9L337.814 145.429H325.757L299.461 113.704H280.17V145.429ZM280.17 74.164V104.509H302.447C308.112 104.509 312.82 103.359 316.571 101.061C320.398 98.6851 322.312 94.7771 322.312 89.3365C322.312 83.8192 320.398 79.9111 316.571 77.6123C312.82 75.3134 308.112 74.164 302.447 74.164H280.17ZM339.391 64.9686H405.534V74.164H377.285V145.429H367.64V74.164H339.391V64.9686ZM418.798 145.429H407.315L438.438 104.049L409.038 64.9686H420.521L444.179 96.348L467.713 64.9686H479.202L449.921 104.049L480.925 145.429H469.442L444.179 111.75L418.798 145.429ZM483.623 112.555H524.618V121.291H483.623V112.555ZM541.562 64.9686H574.518C582.939 64.9686 589.599 66.731 594.499 70.2559C599.398 73.7042 601.848 78.7234 601.848 85.3134C601.848 90.0644 600.585 93.9725 598.058 97.0376C595.532 100.026 592.508 102.057 588.987 103.13C593.274 104.279 597.025 106.501 600.24 109.796C603.455 113.015 605.063 117.536 605.063 123.36C605.063 126.884 604.374 129.988 602.996 132.67C601.695 135.352 600.01 137.498 597.943 139.107C595.953 140.639 593.58 141.904 590.824 142.9C588.145 143.896 585.542 144.586 583.015 144.969C580.566 145.275 578.04 145.429 575.437 145.429H541.562V64.9686ZM595.302 122.325C595.302 113.053 588.91 108.417 576.126 108.417H551.207V136.233H573.485C575.934 136.233 578.001 136.195 579.685 136.118C581.37 135.965 583.283 135.658 585.427 135.199C587.57 134.662 589.293 133.934 590.594 133.015C591.896 132.019 593.006 130.639 593.924 128.877C594.843 127.038 595.302 124.854 595.302 122.325ZM592.087 86.6928C592.087 82.1717 590.518 78.9533 587.379 77.0376C584.317 75.1218 579.762 74.164 573.714 74.164H551.207V99.2215H576.355C580.949 99.2215 584.7 98.2254 587.609 96.233C590.594 94.164 592.087 90.984 592.087 86.6928ZM620.961 64.9686H647.372C661.075 64.9686 671.562 68.685 678.835 76.118C686.184 83.4744 689.859 93.1679 689.859 105.199C689.859 117.229 686.184 126.961 678.835 134.394C671.562 141.75 661.075 145.429 647.372 145.429H620.961V64.9686ZM671.716 128.072C677.304 122.632 680.098 115.007 680.098 105.199C680.098 95.3901 677.304 87.7656 671.716 82.3249C666.204 76.8843 658.089 74.164 647.372 74.164H630.606V136.233H647.372C658.089 136.233 666.204 133.513 671.716 128.072ZM705.737 64.9686H715.383V145.429H705.737V64.9686ZM732.238 112.555H773.232V121.291H732.238V112.555ZM864.816 64.9686H873.083V145.429H863.438V83.2445L834.615 126.463H828.644L799.822 83.2445V145.429H790.176V64.9686H798.444L831.63 114.624L864.816 64.9686ZM894.933 145.429H884.483L919.507 64.9686H930.186L965.094 145.429H954.76L946.492 126.003H903.201L894.933 145.429ZM923.526 77.9571L906.99 117.038H942.702L926.052 77.9571C925.899 77.574 925.478 76.5395 924.789 74.8537C924.1 76.6161 923.679 77.6506 923.526 77.9571ZM970.383 84.8537C970.383 78.0337 973.024 72.7847 978.306 69.1065C983.588 65.4283 990.134 63.5892 997.942 63.5892C1007.36 63.5892 1015.47 65.5433 1022.29 69.4513V79.1065C1015.55 74.7387 1007.66 72.6314 998.631 72.7847C986.306 72.7847 980.144 76.6927 980.144 84.5089C980.144 87.6506 981.33 90.3326 983.703 92.5549C986.076 94.7771 989.024 96.4629 992.545 97.6123C996.067 98.7618 999.894 100.103 1004.03 101.635C1008.24 103.091 1012.1 104.624 1015.63 106.233C1019.15 107.766 1022.09 110.141 1024.47 113.36C1026.84 116.578 1028.03 120.448 1028.03 124.969C1028.03 128.8 1027.19 132.172 1025.5 135.084C1023.89 137.996 1021.67 140.294 1018.84 141.98C1016.01 143.666 1012.87 144.892 1009.43 145.658C1005.98 146.425 1002.27 146.808 998.287 146.808C988.105 146.808 978.919 144.509 970.727 139.911V130.256C978.766 135.16 987.722 137.612 997.598 137.612C1011.38 137.612 1018.27 133.628 1018.27 125.658C1018.27 122.747 1017.39 120.256 1015.63 118.187C1013.87 116.042 1011.57 114.317 1008.74 113.015C1005.9 111.712 1002.77 110.524 999.32 109.451C995.952 108.379 992.584 107.229 989.215 106.003C985.847 104.7 982.746 103.245 979.914 101.635C977.081 99.9495 974.785 97.689 973.024 94.8537C971.263 92.0184 970.383 88.6851 970.383 84.8537Z" fill="#2781F9"/>
<path d="M141.133 89.4891L105.432 69.9233C104.715 69.5312 103.911 69.3255 103.095 69.3255C102.278 69.3255 101.474 69.5312 100.758 69.9233L65.0565 89.4891C64.2904 89.9086 63.6518 90.5261 63.2058 91.2777C62.7606 92.0293 62.5251 92.8875 62.5251 93.7611V132.6C62.5251 133.474 62.7606 134.331 63.2058 135.083C63.6518 135.835 64.2904 136.453 65.0565 136.872L100.758 156.438C101.474 156.832 102.277 157.039 103.095 157.039C103.912 157.039 104.716 156.832 105.432 156.438L141.133 136.872C141.899 136.453 142.538 135.835 142.984 135.083C143.429 134.331 143.664 133.474 143.664 132.6V93.7611C143.664 92.8875 143.429 92.0293 142.984 91.2777C142.538 90.5261 141.899 89.9086 141.133 89.4891ZM102.316 72.7738C102.554 72.641 102.822 72.5714 103.095 72.5714C103.367 72.5714 103.636 72.641 103.874 72.7738L139.068 92.0638L123.582 100.547C123.509 100.486 123.431 100.432 123.347 100.384L87.6456 80.8186L102.316 72.7738ZM103.095 111.759L67.1216 92.0638L84.2542 82.6704L120.227 102.382L103.095 111.759ZM66.6144 134.013C66.3592 133.874 66.1468 133.668 65.9981 133.418C65.8501 133.168 65.771 132.883 65.7704 132.592V95.0242L101.472 114.582V153.124L66.6144 134.013ZM139.575 134.013L104.718 153.1V114.582L120.946 105.692V122.927C120.946 123.358 121.117 123.771 121.421 124.075C121.725 124.38 122.138 124.551 122.568 124.551C122.999 124.551 123.411 124.38 123.716 124.075C124.02 123.771 124.191 123.358 124.191 122.927V103.914L140.419 95.0242V132.6C140.418 132.891 140.34 133.176 140.191 133.426C140.043 133.676 139.83 133.882 139.575 134.022V134.013Z" fill="#2781F9"/>
<path d="M20.6714 65.5471L103.095 17.9129L185.518 65.5471V160.814L103.095 208.449L20.6714 160.814V65.5471Z" stroke="#2781F9" stroke-width="5.84916"/>
<path d="M102.939 37.156C112.084 37.156 119.497 29.7354 119.497 20.5815C119.497 11.4276 112.084 4.00691 102.939 4.00691C93.7942 4.00691 86.3807 11.4276 86.3807 20.5815C86.3807 29.7354 93.7942 37.156 102.939 37.156Z" fill="white" stroke="#2781F9" stroke-width="7.06774"/>
<path d="M102.939 222.355C112.084 222.355 119.497 214.934 119.497 205.781C119.497 196.627 112.084 189.206 102.939 189.206C93.7942 189.206 86.3807 196.627 86.3807 205.781C86.3807 214.934 93.7942 222.355 102.939 222.355Z" fill="white" stroke="#2781F9" stroke-width="7.06774"/>
<path d="M37.1638 75.1684C41.7362 67.2409 39.0227 57.104 31.103 52.5271C23.1833 47.9502 13.0563 50.6663 8.48388 58.5938C3.91142 66.5213 6.62492 76.6582 14.5447 81.2351C22.4644 85.812 32.5913 83.0959 37.1638 75.1684Z" fill="white" stroke="#2781F9" stroke-width="7.06774"/>
<path d="M197.394 167.768C201.967 159.84 199.253 149.703 191.333 145.126C183.414 140.549 173.287 143.266 168.714 151.193C164.142 159.121 166.855 169.257 174.775 173.834C182.695 178.411 192.822 175.695 197.394 167.768Z" fill="white" stroke="#2781F9" stroke-width="7.06774"/>
<path d="M37.1644 151.193C32.5919 143.266 22.465 140.549 14.5453 145.126C6.62556 149.703 3.91204 159.84 8.4845 167.768C13.057 175.695 23.1839 178.411 31.1036 173.834C39.0234 169.257 41.7369 159.121 37.1644 151.193Z" fill="white" stroke="#2781F9" stroke-width="7.06774"/>
<path d="M197.394 58.5938C192.822 50.6663 182.695 47.9501 174.775 52.5271C166.855 57.104 164.142 67.2409 168.714 75.1684C173.287 83.0959 183.414 85.812 191.333 81.2351C199.253 76.6581 201.967 66.5213 197.394 58.5938Z" fill="white" stroke="#2781F9" stroke-width="7.06774"/>
</svg>
