<svg width="2240" height="700" viewBox="0 0 2240 700" fill="none" xmlns="http://www.w3.org/2000/svg">
<path d="M752.68 400H737.56V274H786.88C795.16 274 802.66 275.14 809.38 277.42C816.1 279.58 821.86 283.66 826.66 289.66C831.58 295.54 834.04 303.04 834.04 312.16C834.04 322.96 830.92 331.36 824.68 337.36C818.44 343.36 810.34 347.26 800.38 349.06L843.04 400H824.14L782.92 350.32H752.68V400ZM752.68 288.4V335.92H787.6C796.48 335.92 803.86 334.12 809.74 330.52C815.74 326.8 818.74 320.68 818.74 312.16C818.74 303.52 815.74 297.4 809.74 293.8C803.86 290.2 796.48 288.4 787.6 288.4H752.68ZM845.512 274H949.192V288.4H904.912V400H889.792V288.4H845.512V274ZM969.985 400H951.985L1000.77 335.2L954.685 274H972.685L1009.77 323.14L1046.66 274H1064.67L1018.77 335.2L1067.37 400H1049.37L1009.77 347.26L969.985 400ZM1071.6 348.52H1135.86V362.2H1071.6V348.52ZM1162.42 274H1214.08C1227.28 274 1237.72 276.76 1245.4 282.28C1253.08 287.68 1256.92 295.54 1256.92 305.86C1256.92 313.3 1254.94 319.42 1250.98 324.22C1247.02 328.9 1242.28 332.08 1236.76 333.76C1243.48 335.56 1249.36 339.04 1254.4 344.2C1259.44 349.24 1261.96 356.32 1261.96 365.44C1261.96 370.96 1260.88 375.82 1258.72 380.02C1256.68 384.22 1254.04 387.58 1250.8 390.1C1247.68 392.5 1243.96 394.48 1239.64 396.04C1235.44 397.6 1231.36 398.68 1227.4 399.28C1223.56 399.76 1219.6 400 1215.52 400H1162.42V274ZM1246.66 363.82C1246.66 349.3 1236.64 342.04 1216.6 342.04H1177.54V385.6H1212.46C1216.3 385.6 1219.54 385.54 1222.18 385.42C1224.82 385.18 1227.82 384.7 1231.18 383.98C1234.54 383.14 1237.24 382 1239.28 380.56C1241.32 379 1243.06 376.84 1244.5 374.08C1245.94 371.2 1246.66 367.78 1246.66 363.82ZM1241.62 308.02C1241.62 300.94 1239.16 295.9 1234.24 292.9C1229.44 289.9 1222.3 288.4 1212.82 288.4H1177.54V327.64H1216.96C1224.16 327.64 1230.04 326.08 1234.6 322.96C1239.28 319.72 1241.62 314.74 1241.62 308.02ZM1286.88 274H1328.28C1349.76 274 1366.2 279.82 1377.6 291.46C1389.12 302.98 1394.88 318.16 1394.88 337C1394.88 355.84 1389.12 371.08 1377.6 382.72C1366.2 394.24 1349.76 400 1328.28 400H1286.88V274ZM1366.44 372.82C1375.2 364.3 1379.58 352.36 1379.58 337C1379.58 321.64 1375.2 309.7 1366.44 301.18C1357.8 292.66 1345.08 288.4 1328.28 288.4H1302V385.6H1328.28C1345.08 385.6 1357.8 381.34 1366.44 372.82ZM1419.77 274H1434.89V400H1419.77V274ZM1461.31 348.52H1525.57V362.2H1461.31V348.52ZM1669.13 274H1682.09V400H1666.97V302.62L1621.79 370.3H1612.43L1567.25 302.62V400H1552.13V274H1565.09L1617.11 351.76L1669.13 274ZM1716.34 400H1699.96L1754.86 274H1771.6L1826.32 400H1810.12L1797.16 369.58H1729.3L1716.34 400ZM1761.16 294.34L1735.24 355.54H1791.22L1765.12 294.34C1764.88 293.74 1764.22 292.12 1763.14 289.48C1762.06 292.24 1761.4 293.86 1761.16 294.34ZM1834.61 305.14C1834.61 294.46 1838.75 286.24 1847.03 280.48C1855.31 274.72 1865.57 271.84 1877.81 271.84C1892.57 271.84 1905.29 274.9 1915.97 281.02V296.14C1905.41 289.3 1893.05 286 1878.89 286.24C1859.57 286.24 1849.91 292.36 1849.91 304.6C1849.91 309.52 1851.77 313.72 1855.49 317.2C1859.21 320.68 1863.83 323.32 1869.35 325.12C1874.87 326.92 1880.87 329.02 1887.35 331.42C1893.95 333.7 1900.01 336.1 1905.53 338.62C1911.05 341.02 1915.67 344.74 1919.39 349.78C1923.11 354.82 1924.97 360.88 1924.97 367.96C1924.97 373.96 1923.65 379.24 1921.01 383.8C1918.49 388.36 1915.01 391.96 1910.57 394.6C1906.13 397.24 1901.21 399.16 1895.81 400.36C1890.41 401.56 1884.59 402.16 1878.35 402.16C1862.39 402.16 1847.99 398.56 1835.15 391.36V376.24C1847.75 383.92 1861.79 387.76 1877.27 387.76C1898.87 387.76 1909.67 381.52 1909.67 369.04C1909.67 364.48 1908.29 360.58 1905.53 357.34C1902.77 353.98 1899.17 351.28 1894.73 349.24C1890.29 347.2 1885.37 345.34 1879.97 343.66C1874.69 341.98 1869.41 340.18 1864.13 338.26C1858.85 336.22 1853.99 333.94 1849.55 331.42C1845.11 328.78 1841.51 325.24 1838.75 320.8C1835.99 316.36 1834.61 311.14 1834.61 305.14Z" fill="#2781F9"/>
<path d="M534.736 312.399L478.773 281.759C477.65 281.145 476.39 280.823 475.11 280.823C473.83 280.823 472.57 281.145 471.447 281.759L415.484 312.399C414.283 313.056 413.282 314.023 412.583 315.2C411.885 316.377 411.516 317.721 411.516 319.089V379.911C411.516 381.279 411.885 382.622 412.583 383.799C413.282 384.976 414.283 385.944 415.484 386.601L471.447 417.241C472.569 417.858 473.829 418.182 475.11 418.182C476.391 418.182 477.651 417.858 478.773 417.241L534.736 386.601C535.937 385.944 536.939 384.976 537.637 383.799C538.335 382.622 538.704 381.279 538.704 379.911V319.089C538.704 317.721 538.335 316.377 537.637 315.2C536.939 314.023 535.937 313.056 534.736 312.399ZM473.889 286.223C474.262 286.015 474.683 285.906 475.11 285.906C475.537 285.906 475.958 286.015 476.331 286.223L531.499 316.431L507.225 329.716C507.11 329.62 506.987 329.535 506.856 329.461L450.893 298.821L473.889 286.223ZM475.11 347.274L418.721 316.431L445.577 301.721L501.966 332.59L475.11 347.274ZM417.926 382.124C417.526 381.905 417.193 381.583 416.96 381.192C416.728 380.8 416.604 380.353 416.603 379.898V321.067L472.566 351.694V412.051L417.926 382.124ZM532.294 382.124L477.654 412.013V351.694L503.092 337.773V364.763C503.092 365.437 503.36 366.084 503.837 366.561C504.314 367.038 504.961 367.306 505.635 367.306C506.31 367.306 506.957 367.038 507.434 366.561C507.911 366.084 508.179 365.437 508.179 364.763V334.988L533.617 321.067V379.911C533.616 380.366 533.493 380.813 533.26 381.204C533.027 381.596 532.694 381.918 532.294 382.137V382.124Z" fill="#2781F9"/>
<path d="M345.909 274.906L475.11 200.311L604.311 274.906V424.094L475.11 498.689L345.909 424.094V274.906Z" stroke="#2781F9" stroke-width="5.84916"/>
<circle cx="474.866" cy="204.49" r="25.9557" fill="white" stroke="#2781F9" stroke-width="7.06774"/>
<circle cx="474.866" cy="494.511" r="25.9557" fill="white" stroke="#2781F9" stroke-width="7.06774"/>
<circle cx="349.283" cy="276.995" r="25.9557" transform="rotate(-60 349.283 276.995)" fill="white" stroke="#2781F9" stroke-width="7.06774"/>
<circle cx="600.449" cy="422.005" r="25.9557" transform="rotate(-60 600.449 422.005)" fill="white" stroke="#2781F9" stroke-width="7.06774"/>
<circle cx="349.284" cy="422.005" r="25.9557" transform="rotate(-120 349.284 422.005)" fill="white" stroke="#2781F9" stroke-width="7.06774"/>
<circle cx="600.449" cy="276.995" r="25.9557" transform="rotate(-120 600.449 276.995)" fill="white" stroke="#2781F9" stroke-width="7.06774"/>
</svg>
