<svg width="720" height="161" viewBox="0 0 720 161" fill="none" xmlns="http://www.w3.org/2000/svg">
<path d="M196.118 103.096H189.361V46.7168H211.402C215.102 46.7168 218.453 47.2269 221.457 48.2471C224.46 49.2136 227.034 51.0392 229.179 53.724C231.377 56.355 232.477 59.7109 232.477 63.7917C232.477 68.6243 231.083 72.3829 228.294 75.0676C225.505 77.7524 221.886 79.4975 217.435 80.3029L236.499 103.096H228.053L209.632 80.8667H196.118V103.096ZM196.118 53.1602V74.4233H211.723C215.692 74.4233 218.99 73.6179 221.617 72.007C224.299 70.3425 225.639 67.6041 225.639 63.7917C225.639 59.9257 224.299 57.1873 221.617 55.5764C218.99 53.9656 215.692 53.1602 211.723 53.1602H196.118ZM237.604 46.7168H283.937V53.1602H264.149V103.096H257.392V53.1602H237.604V46.7168ZM293.229 103.096H285.185L306.986 74.1012L286.392 46.7168H294.436L311.008 68.7048L327.494 46.7168H335.543L315.03 74.1012L336.749 103.096H328.705L311.008 79.4975L293.229 103.096ZM338.639 80.0613H367.356V86.1825H338.639V80.0613ZM379.226 46.7168H402.312C408.211 46.7168 412.876 47.9518 416.309 50.4217C419.741 52.838 421.457 56.355 421.457 60.9728C421.457 64.3018 420.572 67.0403 418.802 69.1881C417.032 71.2822 414.914 72.7051 412.447 73.4568C415.451 74.2622 418.078 75.8194 420.331 78.1283C422.583 80.3834 423.709 83.5514 423.709 87.6322C423.709 90.1022 423.226 92.2768 422.261 94.1562C421.349 96.0355 420.17 97.5389 418.722 98.6665C417.327 99.7404 415.665 100.626 413.734 101.324C411.858 102.022 410.034 102.506 408.265 102.774C406.549 102.989 404.779 103.096 402.956 103.096H379.226V46.7168ZM416.872 86.9074C416.872 80.4103 412.394 77.1618 403.438 77.1618H385.983V96.653H401.588C403.304 96.653 404.752 96.6261 405.932 96.5724C407.112 96.4651 408.452 96.2503 409.954 95.9281C411.455 95.5522 412.662 95.0421 413.574 94.3978C414.485 93.6998 415.263 92.7332 415.906 91.4983C416.55 90.2096 416.872 88.6793 416.872 86.9074ZM414.619 61.9393C414.619 58.7713 413.52 56.5161 411.321 55.1737C409.176 53.8313 405.985 53.1602 401.749 53.1602H385.983V70.7184H403.599C406.817 70.7184 409.444 70.0203 411.482 68.6243C413.574 67.1745 414.619 64.9462 414.619 61.9393ZM434.845 46.7168H453.347C462.946 46.7168 470.293 49.321 475.387 54.5294C480.535 59.6841 483.109 66.4765 483.109 74.9066C483.109 83.3367 480.535 90.1559 475.387 95.3643C470.293 100.519 462.946 103.096 453.347 103.096H434.845V46.7168ZM470.4 90.9345C474.315 87.1221 476.272 81.7795 476.272 74.9066C476.272 68.0336 474.315 62.691 470.4 58.8787C466.539 55.0663 460.854 53.1602 453.347 53.1602H441.602V96.653H453.347C460.854 96.653 466.539 94.7468 470.4 90.9345ZM494.232 46.7168H500.989V103.096H494.232V46.7168ZM512.796 80.0613H541.513V86.1825H512.796V80.0613ZM605.668 46.7168H611.46V103.096H604.703V59.523L584.513 89.8069H580.33L560.139 59.523V103.096H553.382V46.7168H559.174L582.421 81.511L605.668 46.7168ZM626.766 103.096H619.446L643.98 46.7168H651.461L675.915 103.096H668.675L662.883 89.4847H632.557L626.766 103.096ZM646.795 55.8181L635.212 83.2024H660.229L648.565 55.8181C648.458 55.5496 648.163 54.8247 647.68 53.6434C647.198 54.8784 646.903 55.6033 646.795 55.8181ZM679.619 60.6506C679.619 55.8718 681.469 52.1937 685.17 49.6163C688.87 47.039 693.455 45.7503 698.925 45.7503C705.521 45.7503 711.205 47.1195 715.978 49.8579V56.6235C711.259 53.5629 705.735 52.0863 699.407 52.1937C690.774 52.1937 686.457 54.9321 686.457 60.409C686.457 62.6105 687.288 64.4898 688.95 66.0469C690.613 67.6041 692.677 68.7854 695.144 69.5908C697.611 70.3962 700.292 71.3359 703.188 72.4098C706.138 73.43 708.846 74.5039 711.312 75.6314C713.779 76.7053 715.844 78.3699 717.506 80.6251C719.169 82.8803 720 85.5918 720 88.7598C720 91.4446 719.41 93.8071 718.23 95.8475C717.104 97.888 715.549 99.4988 713.565 100.68C711.581 101.861 709.382 102.72 706.969 103.257C704.556 103.794 701.955 104.063 699.166 104.063C692.034 104.063 685.599 102.452 679.861 99.2303V92.4648C685.491 95.9012 691.766 97.6195 698.683 97.6195C708.336 97.6195 713.163 94.8274 713.163 89.2431C713.163 87.2027 712.546 85.4576 711.312 84.0078C710.079 82.5044 708.47 81.2963 706.486 80.3834C704.502 79.4706 702.303 78.6384 699.89 77.8866C697.53 77.1349 695.171 76.3295 692.811 75.4704C690.452 74.5576 688.28 73.5374 686.296 72.4098C684.312 71.2285 682.703 69.6445 681.469 67.6578C680.236 65.6711 679.619 63.3353 679.619 60.6506Z" fill="#2781F9"/>
<path d="M98.7216 63.8987L73.7125 50.1886C73.2106 49.9139 72.6475 49.7698 72.0755 49.7698C71.5035 49.7698 70.9404 49.9139 70.4386 50.1886L45.4294 63.8987C44.8927 64.1926 44.4453 64.6254 44.133 65.152C43.821 65.6787 43.6561 66.28 43.6561 66.8922V94.1074C43.6561 94.7195 43.821 95.3204 44.133 95.8471C44.4453 96.3738 44.8927 96.8069 45.4294 97.1009L70.4386 110.811C70.94 111.087 71.503 111.232 72.0755 111.232C72.648 111.232 73.2111 111.087 73.7125 110.811L98.7216 97.1009C99.2584 96.8069 99.7061 96.3738 100.018 95.8471C100.33 95.3204 100.495 94.7195 100.495 94.1074V66.8922C100.495 66.28 100.33 65.6787 100.018 65.152C99.7061 64.6254 99.2584 64.1926 98.7216 63.8987ZM71.5299 52.186C71.6965 52.093 71.8847 52.0442 72.0755 52.0442C72.2663 52.0442 72.4545 52.093 72.6212 52.186L97.2751 65.7028L86.4273 71.6473C86.3759 71.6043 86.3209 71.5663 86.2624 71.5332L61.2532 57.8231L71.5299 52.186ZM72.0755 79.5037L46.876 65.7028L58.8776 59.1207L84.0771 72.9333L72.0755 79.5037ZM46.5207 95.0976C46.3419 94.9996 46.1931 94.8555 46.089 94.6806C45.9853 94.5052 45.9299 94.3052 45.9294 94.1016V67.7772L70.9386 81.4815V108.489L46.5207 95.0976ZM97.6303 95.0976L73.2124 108.472V81.4815L84.5803 75.2525V87.3293C84.5803 87.6309 84.7001 87.9204 84.9133 88.1338C85.1264 88.3473 85.4156 88.4672 85.7168 88.4672C86.0184 88.4672 86.3075 88.3473 86.5207 88.1338C86.7339 87.9204 86.8536 87.6309 86.8536 87.3293V74.0063L98.2216 67.7772V94.1074C98.2211 94.311 98.1662 94.511 98.062 94.686C97.9579 94.8614 97.8091 95.0054 97.6303 95.1034V95.0976Z" fill="#2781F9"/>
<path d="M14.3372 47.1222L72.0755 13.7441L129.814 47.1222V113.877L72.0755 147.255L14.3372 113.877V47.1222Z" stroke="#2781F9" stroke-width="5.84916"/>
<path d="M71.9665 27.2281C78.3726 27.2281 83.5657 22.0283 83.5657 15.6141C83.5657 9.19979 78.3726 4 71.9665 4C65.5604 4 60.3672 9.19979 60.3672 15.6141C60.3672 22.0283 65.5604 27.2281 71.9665 27.2281Z" fill="white" stroke="#2781F9" stroke-width="7.06774"/>
<path d="M71.9665 157C78.3726 157 83.5657 151.8 83.5657 145.386C83.5657 138.972 78.3726 133.772 71.9665 133.772C65.5604 133.772 60.3672 138.972 60.3672 145.386C60.3672 151.8 65.5604 157 71.9665 157Z" fill="white" stroke="#2781F9" stroke-width="7.06774"/>
<path d="M25.8902 53.8639C29.0932 48.309 27.1924 41.206 21.6446 37.9988C16.0967 34.7917 9.00269 36.695 5.79964 42.2499C2.59659 47.8048 4.49742 54.9078 10.0453 58.115C15.5931 61.3221 22.6871 59.4189 25.8902 53.8639Z" fill="white" stroke="#2781F9" stroke-width="7.06774"/>
<path d="M138.133 118.75C141.336 113.195 139.435 106.092 133.888 102.885C128.34 99.6774 121.246 101.581 118.043 107.136C114.84 112.691 116.74 119.794 122.288 123.001C127.836 126.208 134.93 124.305 138.133 118.75Z" fill="white" stroke="#2781F9" stroke-width="7.06774"/>
<path d="M25.8906 107.136C22.6876 101.581 15.5936 99.6774 10.0457 102.885C4.49788 106.092 2.59704 113.195 5.80009 118.75C9.00315 124.305 16.0972 126.208 21.645 123.001C27.1929 119.794 29.0937 112.691 25.8906 107.136Z" fill="white" stroke="#2781F9" stroke-width="7.06774"/>
<path d="M138.133 42.2499C134.93 36.695 127.836 34.7917 122.288 37.9988C116.74 41.206 114.84 48.309 118.043 53.8639C121.246 59.4189 128.34 61.3221 133.888 58.115C139.435 54.9079 141.336 47.8048 138.133 42.2499Z" fill="white" stroke="#2781F9" stroke-width="7.06774"/>
</svg>
